<svg xmlns="http://www.w3.org/2000/svg" xmlns:xlink="http://www.w3.org/1999/xlink" width="123" zoomAndPan="magnify" viewBox="0 0 92.25 30.000001" height="40" preserveAspectRatio="xMidYMid meet" version="1.0"><defs><clipPath id="725fae34e7"><path d="M 4.015625 4.363281 L 19.53125 4.363281 L 19.53125 21.089844 L 4.015625 21.089844 Z M 4.015625 4.363281 " clip-rule="nonzero"/></clipPath><clipPath id="ed1c5557f9"><path d="M 11.359375 10.601562 L 19.53125 10.601562 L 19.53125 15 L 11.359375 15 Z M 11.359375 10.601562 " clip-rule="nonzero"/></clipPath><clipPath id="c1a1d007cf"><path d="M 16.855469 10.601562 L 19.53125 10.601562 L 19.53125 19.328125 L 16.855469 19.328125 Z M 16.855469 10.601562 " clip-rule="nonzero"/></clipPath><clipPath id="70c506558b"><path d="M 85.128906 18.445312 L 87.882812 18.445312 L 87.882812 21.199219 L 85.128906 21.199219 Z M 85.128906 18.445312 " clip-rule="nonzero"/></clipPath><clipPath id="5c38c753d9"><path d="M 86.503906 18.445312 C 85.746094 18.445312 85.128906 19.0625 85.128906 19.824219 C 85.128906 20.582031 85.746094 21.199219 86.503906 21.199219 C 87.265625 21.199219 87.882812 20.582031 87.882812 19.824219 C 87.882812 19.0625 87.265625 18.445312 86.503906 18.445312 Z M 86.503906 18.445312 " clip-rule="nonzero"/></clipPath></defs><path fill="#ffffff" d="M 25.652344 8.886719 L 23.214844 8.886719 L 23.214844 17.511719 C 23.214844 18.085938 23.214844 18.488281 23.246094 18.890625 C 23.308594 19.976562 23.992188 20.429688 25.15625 20.429688 C 25.699219 20.429688 26.148438 20.398438 26.613281 20.351562 L 26.613281 18.691406 C 25.882812 18.722656 25.714844 18.597656 25.667969 18.226562 C 25.652344 18.007812 25.652344 17.820312 25.652344 17.464844 Z M 25.652344 8.886719 " fill-opacity="1" fill-rule="nonzero"/><path fill="#ffffff" d="M 29.003906 8.824219 C 28.226562 8.824219 27.714844 9.304688 27.714844 10.050781 C 27.714844 10.808594 28.226562 11.289062 29.003906 11.289062 C 29.78125 11.289062 30.308594 10.808594 30.308594 10.050781 C 30.308594 9.304688 29.78125 8.824219 29.003906 8.824219 Z M 30.230469 20.289062 L 30.230469 12.019531 L 27.792969 12.019531 L 27.792969 20.289062 Z M 30.230469 20.289062 " fill-opacity="1" fill-rule="nonzero"/><path fill="#ffffff" d="M 35.796875 11.800781 C 33.457031 11.800781 31.5625 13.386719 31.5625 16.226562 C 31.5625 19.03125 33.300781 20.507812 35.597656 20.507812 C 37.753906 20.507812 39.335938 19.433594 39.664062 17.355469 L 37.257812 17.355469 C 37.070312 18.316406 36.480469 18.832031 35.738281 18.832031 C 34.726562 18.832031 34.0625 17.992188 34.0625 16.070312 C 34.0625 14.316406 34.714844 13.476562 35.738281 13.476562 C 36.542969 13.476562 37.117188 13.941406 37.289062 15.074219 L 39.664062 15.074219 C 39.539062 13.230469 38.109375 11.800781 35.796875 11.800781 Z M 35.796875 11.800781 " fill-opacity="1" fill-rule="nonzero"/><path fill="#ffffff" d="M 44.039062 17.125 L 46.441406 20.289062 L 49.46875 20.289062 L 45.835938 15.835938 L 49.421875 12.019531 L 46.535156 12.019531 L 43.402344 15.648438 L 43.402344 8.886719 L 40.964844 8.886719 L 40.964844 20.289062 L 43.402344 20.289062 L 43.402344 17.820312 Z M 44.039062 17.125 " fill-opacity="1" fill-rule="nonzero"/><path fill="#ffffff" d="M 65.074219 9.582031 L 62.578125 9.582031 L 60.824219 18.472656 L 59.210938 9.738281 L 55.75 9.738281 L 54.089844 18.394531 L 52.445312 9.582031 L 49.839844 9.582031 L 52.476562 20.289062 L 55.71875 20.289062 L 57.441406 11.617188 L 59.054688 20.289062 L 62.28125 20.289062 Z M 65.074219 9.582031 " fill-opacity="1" fill-rule="nonzero"/><path fill="#ffffff" d="M 73.640625 16.007812 C 73.640625 13.804688 72.273438 11.800781 69.636719 11.800781 C 67.015625 11.800781 65.355469 13.695312 65.355469 16.179688 C 65.355469 19.09375 67.167969 20.507812 69.480469 20.507812 C 71.5 20.507812 73.050781 19.496094 73.5 17.589844 L 71.09375 17.589844 C 70.953125 18.363281 70.382812 18.832031 69.527344 18.832031 C 68.613281 18.832031 67.929688 18.363281 67.789062 16.78125 L 73.59375 16.78125 C 73.625 16.488281 73.640625 16.226562 73.640625 16.007812 Z M 69.527344 13.476562 C 70.429688 13.476562 70.972656 14.082031 71.109375 15.246094 L 67.851562 15.246094 C 68.054688 14.019531 68.660156 13.476562 69.527344 13.476562 Z M 69.527344 13.476562 " fill-opacity="1" fill-rule="nonzero"/><path fill="#ffffff" d="M 80.171875 11.800781 C 79.332031 11.800781 78.511719 11.988281 78.046875 12.347656 L 77.425781 13.261719 L 77.425781 8.886719 L 74.988281 8.886719 L 74.988281 20.289062 L 77.425781 20.289062 L 77.425781 19.203125 L 77.96875 20.070312 C 78.386719 20.335938 79.207031 20.507812 79.890625 20.507812 C 82.015625 20.507812 83.832031 18.953125 83.832031 15.976562 C 83.832031 13.539062 82.453125 11.800781 80.171875 11.800781 Z M 79.316406 18.832031 C 78.386719 18.832031 77.425781 18.210938 77.425781 16.425781 L 77.425781 16.054688 C 77.425781 14.160156 78.277344 13.476562 79.394531 13.476562 C 80.542969 13.476562 81.335938 14.503906 81.335938 16.132812 C 81.335938 17.929688 80.496094 18.832031 79.316406 18.832031 Z M 79.316406 18.832031 " fill-opacity="1" fill-rule="nonzero"/><g clip-path="url(#725fae34e7)"><path fill="#ffffff" d="M 7.828125 12.78125 C 7.828125 9.6875 9.992188 7.574219 13.15625 7.574219 C 14.351562 7.574219 15.402344 7.878906 16.34375 8.523438 L 19.484375 6.847656 C 17.90625 5.222656 15.652344 4.363281 12.972656 4.363281 C 7.785156 4.363281 4.015625 7.875 4.015625 12.78125 C 4.015625 17.6875 7.785156 21.199219 12.972656 21.199219 C 14.9375 21.199219 16.671875 20.738281 18.078125 19.855469 L 16.339844 17.039062 C 15.398438 17.683594 14.351562 17.988281 13.152344 17.988281 C 9.992188 17.988281 7.828125 15.875 7.828125 12.78125 Z M 7.828125 12.78125 " fill-opacity="1" fill-rule="evenodd"/></g><g clip-path="url(#ed1c5557f9)"><path fill="#ff006b" d="M 16.863281 14.886719 L 19.484375 10.6875 L 11.578125 14.910156 L 16.042969 14.890625 Z M 16.863281 14.886719 " fill-opacity="1" fill-rule="evenodd"/></g><g clip-path="url(#c1a1d007cf)"><path fill="#e01d5b" d="M 19.484375 10.6875 L 16.863281 14.886719 L 19.484375 19.132812 Z M 19.484375 10.6875 " fill-opacity="1" fill-rule="evenodd"/></g><g clip-path="url(#70c506558b)"><g clip-path="url(#5c38c753d9)"><path fill="#e01d5b" d="M 85.128906 18.445312 L 87.882812 18.445312 L 87.882812 21.199219 L 85.128906 21.199219 Z M 85.128906 18.445312 " fill-opacity="1" fill-rule="nonzero"/></g></g></svg>